<svg transform="scale(1)" id="_0093_artificial_intelligence" xmlns="http://www.w3.org/2000/svg" xmlns:xlink="http://www.w3.org/1999/xlink" viewBox="0 0 500 500" class="show_show__wrapper__graphic__5Waiy "><title>React</title><defs><style>.cls-1{stroke-linecap:round;stroke-width:2.29px;}.cls-1,.cls-2{fill:none;stroke:#fff;stroke-miterlimit:10;}.cls-3{fill:url(#linear-gradient);}.cls-3,.cls-4,.cls-5,.cls-6,.cls-7,.cls-8,.cls-9,.cls-10,.cls-11,.cls-12,.cls-13{stroke-width:0px;}.cls-2{stroke-width:1.71px;}.cls-4{isolation:isolate;opacity:.18;}.cls-4,.cls-13{fill:#68e3fd;}.cls-5{fill:url(#linear-gradient-4);}.cls-6{fill:url(#linear-gradient-2);}.cls-7{fill:url(#linear-gradient-3);}.cls-8{fill:url(#linear-gradient-5);}.cls-9{fill:url(#linear-gradient-6);}.cls-10{fill:#231f20;}.cls-11{fill:#fff;}.cls-12{fill:#ffaa71;}</style><linearGradient id="linear-gradient" x1="524.26" y1="3574.7" x2="693.24" y2="3574.7" gradientTransform="translate(-471 3927.59) scale(1 -1)" gradientUnits="userSpaceOnUse"><stop offset=".02" stop-color="#fff" stop-opacity="0"></stop><stop offset=".58" stop-color="#fff" stop-opacity=".39"></stop><stop offset=".68" stop-color="#fff" stop-opacity=".68"></stop><stop offset="1" stop-color="#fff"></stop></linearGradient><linearGradient id="linear-gradient-2" x1="860.2" y1="3448.2" x2="886.55" y2="3448.2" gradientTransform="translate(-474.98 3862.05) scale(1 -1)" gradientUnits="userSpaceOnUse"><stop offset="0" stop-color="#231f20" stop-opacity="0"></stop><stop offset="1" stop-color="#231f20"></stop></linearGradient><linearGradient id="linear-gradient-3" x1="889.89" y1="3448.19" x2="916.25" y2="3448.19" xlink:href="#linear-gradient-2"></linearGradient><linearGradient id="linear-gradient-4" x1="896.48" y1="3424.99" x2="878.15" y2="3642.09" gradientTransform="translate(-474.98 3862.05) scale(1 -1)" xlink:href="#linear-gradient"></linearGradient><linearGradient id="linear-gradient-5" x1="886.52" y1="3619" x2="856.93" y2="3650.2" gradientTransform="translate(-474.98 3862.05) scale(1 -1)" xlink:href="#linear-gradient"></linearGradient><linearGradient id="linear-gradient-6" x1="851.78" y1="3573.83" x2="864.16" y2="3573.83" gradientTransform="translate(-474.98 3862.05) scale(1 -1)" xlink:href="#linear-gradient"></linearGradient></defs><g id="shadow"><path class="cls-4" id="shadow-2" d="M322.86,404.49c-4.08-.28-8.93-1.26-10.44-5.03-1.1-2.74.12-5.9-.34-8.78-.96-6.18-8.39-8.77-14.58-10.13l-26.32-5.74c-2.73-.6-5.65-1.31-7.47-3.41-1.29-1.5-1.81-3.54-2.8-5.22-4.12-7.14-14.32-7.22-22.6-6.5-46.54,4.04-93.3,4.75-139.94,2.12-14.02-.79-28.76-1.76-41.44,4.21-1.6.58-2.94,1.7-3.79,3.16-1.01,2.25.32,4.83,1.72,6.87,11.87,17.21,31.92,27.59,52.5,32.2,20.57,4.6,41.92,4.06,63.01,3.54l80.46-2.16c3.19-.09,6.76,0,9.01,2.21s2.24,6.1,3.72,9.05c2.05,4.12,6.81,6.13,11.27,7.46,17.22,5.15,35.51,5.35,53.51,5.51,45.01.41,90.09.81,135.02-2.11,6.68-.44,15.09-2.44,16.1-8.98.61-4.02-2.36-7.92-5.98-9.8-3.62-1.88-7.92-2.17-12.04-2.43l-74.27-4.66c-9.44-.59-18.98-2.62-28.25-2.83-12.01-.33-23.84,2.29-36.04,1.44Z"></path><path class="cls-4" d="M331.65,177.15c1.73,12.09,5.72,23.73,9.69,35.29,3.15,9.16,6.59,18.77,13.9,25.11,3.6,3.14,8.26,5.72,9.56,10.33.76,2.76.07,5.7-.6,8.49l24.54-.55c.77.05,1.54-.1,2.23-.44.74-.56,1.27-1.36,1.49-2.27,1.9-5.42,1.78-11.29,2.08-17.03.71-14.16,4.38-28.75,13.97-39.14,1.32-1.2,2.39-2.65,3.17-4.25.5-1.62.65-3.33.45-5.02-.74-15.56-.9-31.12-.5-46.69.08-.92-.01-1.84-.28-2.73-.32-.68-.75-1.31-1.27-1.85l-7.08-8.26c-.4-.53-.89-.99-1.45-1.35-1.62-.94-3.67-.18-5.38.6-3.13,1.43-6.49,3.08-7.98,6.17-.76,1.91-1.12,3.96-1.05,6.02l-.53,15.6c-.18,4.98-.11,10.56,3.42,14.07,1.57,1.53,3.72,2.56,4.72,4.51.64,1.56.82,3.27.51,4.93-.33,2.95-.99,5.86-1.97,8.66-1.05,2.88-2.28,5.69-3.66,8.43l-14.16,29.51c-.34.68-.89,1.5-1.64,1.36-.44-.14-.81-.46-1.03-.87-9.63-14.16-14.88-31.17-25.78-44.41-1.7-2.07-4.07-4.91-6.74-5.77-2.96-.99-5.63.67-8.63,1.55Z"></path></g><g id="machine"><path class="cls-4" d="M343.47,101.38l-2.97,8.8h-17.89c-12.7,0-23,10.3-23,23h0v96.79l-40.13,117.61c1.52,5.37-30.98,16.12-86.16,15.53-80.4-.84-82.84-15.53-82.84-15.53L20.47,103.25l323-1.88Z"></path><path class="cls-4" d="M239.43,352.89l54.2-250.06H71.06l43.74,250.87s-22.79,13.88,57.61,14.73c55.15.58,68.56-10.16,67.02-15.53Z"></path><ellipse class="cls-13" cx="169.47" cy="363.8" rx="96.47" ry="26.71"></ellipse><ellipse class="cls-3" cx="174.05" cy="352.89" rx="84.49" ry="15.67"></ellipse><polyline class="cls-2" points="173.37 363.11 173.37 321.22 137.63 321.22 137.63 276.18"></polyline><circle class="cls-2" cx="138.16" cy="271.03" r="5.15"></circle><circle class="cls-2" cx="100.86" cy="300.3" r="5.15"></circle><circle class="cls-2" cx="155.22" cy="274.89" r="5.15"></circle><circle class="cls-2" cx="170.34" cy="253.35" r="5.15"></circle><circle class="cls-2" cx="211.82" cy="258.17" r="5.15"></circle><circle class="cls-2" cx="245.81" cy="272.43" r="5.15"></circle><circle class="cls-2" cx="225.33" cy="334.93" r="5.15"></circle><polyline class="cls-2" points="137.63 295.49 155.32 295.49 155.32 279.08"></polyline><polyline class="cls-2" points="174.3 327.97 195.2 327.97 195.2 296.44 170.44 296.44 170.44 258.5"></polyline><polyline class="cls-2" points="211.93 263.31 211.93 309.31 195.52 309.31"></polyline><polyline class="cls-2" points="172.37 340.83 118.02 340.83 118.02 301.59 105.47 301.59"></polyline><polyline class="cls-2" points="212.14 293.45 225.44 293.45 225.44 330.11"></polyline><polyline class="cls-2" points="225.44 311.88 234.61 311.88 234.61 273.29 241.85 273.29"></polyline></g><g id="screen"><path class="cls-4" d="M468.23,133.14v100.54c0,12.71-10.31,23-23.01,23h-122.61c-12.7,0-23-10.3-23-23h0v-100.54c.03-12.69,10.32-22.96,23-22.96h122.61c12.68,0,22.98,10.27,23.01,22.96Z"></path><rect class="cls-4" x="317.11" y="124.85" width="44.39" height="28.47" rx="5.28" ry="5.28"></rect><rect class="cls-4" x="318.95" y="126.27" width="44.39" height="28.47" rx="5.28" ry="5.28"></rect></g><g id="character"><path class="cls-10" d="M411.54,417.39c.08.4.03.81-.13,1.18-.38.44-.92.69-1.5.7-8.18,1.13-16.46,1.34-24.69.63,4.07-2.77,8.66-4.66,13.5-5.56,1.34.18,2.56-.77,2.74-2.1.02-.12.02-.24.02-.36.18-1.24.49-2.46.93-3.64.08-.28.24-.53.47-.71.25-.11.51-.14.78-.11l4.27.22c1.7.11,1.77,0,2.2,1.69.66,2.65,1.13,5.34,1.4,8.06Z"></path><path class="cls-10" d="M441.23,417.39c.08.4.03.81-.14,1.18-.38.44-.92.69-1.5.7-8.18,1.13-16.45,1.34-24.68.63,4.07-2.77,8.66-4.66,13.5-5.56.94-.04,1.82-.46,2.42-1.18.19-.4.31-.83.34-1.27.17-1.24.49-2.46.93-3.64.07-.28.24-.53.47-.71.24-.11.51-.14.77-.11l4.27.22c1.71.11,1.77,0,2.21,1.69.65,2.65,1.12,5.34,1.4,8.05Z"></path><path class="cls-6" d="M411.54,417.39c.08.4.03.81-.13,1.18-.38.44-.92.69-1.5.7-8.18,1.13-16.46,1.34-24.69.63,4.07-2.77,8.66-4.66,13.5-5.56,1.34.18,2.56-.77,2.74-2.1.02-.12.02-.24.02-.36.18-1.24.49-2.46.93-3.64.08-.28.24-.53.47-.71.25-.11.51-.14.78-.11l4.27.22c1.7.11,1.77,0,2.2,1.69.66,2.65,1.13,5.34,1.4,8.06Z"></path><path class="cls-7" d="M441.23,417.39c.08.4.03.81-.14,1.18-.38.44-.92.69-1.5.7-8.18,1.13-16.45,1.34-24.68.63,4.07-2.77,8.66-4.66,13.5-5.56.94-.04,1.82-.46,2.42-1.18.19-.4.31-.83.34-1.27.17-1.24.49-2.46.93-3.64.07-.28.24-.53.47-.71.24-.11.51-.14.77-.11l4.27.22c1.71.11,1.77,0,2.21,1.69.65,2.65,1.12,5.34,1.4,8.05Z"></path><path class="cls-10" d="M383.34,272.97l9.98,136.99,19.99-.22-1.72-97.96,13.4,97.41,16.87.15-.64-146.35s-18.59-34.45-57.88,9.97Z"></path><path class="cls-11" d="M346.78,198.79c-2.55-7-6.22-16.2-8.77-23.2-.65-1.77-1.3-3.54-2.07-5.26,8.63-1.18,16.82-2.77,25.5-3.35,1.03-.29,2.1.31,2.39,1.34.03.12.06.25.07.37l12.29,37.63-6.96,22.71-22.45-30.23Z"></path><path class="cls-13" d="M413.85,327.74c10.1,0,20.06-1.36,29.45-5.06,1.17-.37,2.23-1.01,3.12-1.86,1.5-1.66,1.44-4.18,1.29-6.41-2.3-34.05-6.9-67.98-7.01-102.1,0-6.3.11-12.68-1.32-18.81-1.43-6.14-4.64-12.12-9.96-15.5-5.79-3.68-13.12-3.74-19.97-3.23-6.36.48-12.98,1.46-18.23,5.06-12.04,8.26-6.86,30.06-7.4,42.49-.99,18.57-3,37.06-6.02,55.41-1.61,10.34-3.36,20.65-5.09,30.97-.9,5.35-1.18,12.04,3.39,14.89,1.74.91,3.66,1.44,5.62,1.56,7.93,1.03,15.89,2.02,23.88,2.44,1.99.11,3.99.18,5.98.2,2.45,0,2.36-.44,3.42-2.62,1.78-3.8,3.55-7.6,5.32-11.41.4,4.72.68,9.49.83,14.32"></path><path class="cls-5" d="M413.86,327.52c10.11,0,20.06-1.36,29.51-5.07,1.16-.37,2.23-1.01,3.1-1.86,1.5-1.66,1.45-4.17,1.3-6.41-2.3-34.05-6.9-67.98-7.01-102.1,0-6.3.11-12.68-1.32-18.8s-4.65-12.13-9.96-15.5c-5.79-3.68-13.12-3.75-19.98-3.23-6.36.48-12.98,1.46-18.22,5.05-12.04,8.2-6.86,30.06-7.4,42.49-.99,18.57-3.01,37.07-6.03,55.41-1.59,10.34-3.35,20.65-5.09,30.98-.89,5.35-1.18,12.03,3.4,14.88,1.74.92,3.65,1.45,5.61,1.56,7.94,1.03,15.89,2.02,23.89,2.44,1.99.11,3.99.18,5.98.2,2.45,0,2.36-.42,3.42-2.61,1.77-3.82,3.54-7.62,5.32-11.42.4,4.77.67,9.54.81,14.32"></path><path class="cls-13" d="M390.88,226.18c-1.31,3.67-2.62,7.34-4.28,10.86-.74,1.89-2,3.53-3.65,4.72-1.08.61-2.3.96-3.54.99-4.53.25-8.79-2.14-12.39-4.89-5.64-4.32-10.38-9.7-13.95-15.84-.42-.62-.7-1.33-.83-2.08.02-1.36.53-2.66,1.43-3.68l5.15-7.39c3.3,4.25,7.18,8.01,11.53,11.16.36.35.86.51,1.36.44.5-.15.72-.72.87-1.18l6.23-20.34c1.97-6.38,4.43-13.41,10.3-16.59.72-.43,1.53-.68,2.36-.74,1.5.11,2.9.82,3.86,1.98,5.1,5.22,4.86,12.13,3.26,18.65-2.17,8.1-4.74,16.08-7.71,23.92Z"></path><path class="cls-8" d="M390.85,225.91c-1.31,3.67-2.62,7.34-4.28,10.86-.74,1.89-2,3.53-3.65,4.72-1.1.62-2.34.97-3.6,1-4.52.24-8.78-2.15-12.38-4.9-5.64-4.31-10.38-9.7-13.95-15.84-.42-.62-.7-1.33-.84-2.07.02-1.36.54-2.67,1.44-3.69l5.15-7.38c3.29,4.25,7.17,8.01,11.53,11.15.35.35.85.51,1.35.44.51-.15.73-.72.89-1.18l6.23-20.34c1.96-6.4,4.41-13.42,10.3-16.59.71-.44,1.52-.69,2.36-.74,1.5.1,2.9.81,3.86,1.97,5.1,5.22,4.86,12.13,3.25,18.65-2.15,8.1-4.7,16.09-7.65,23.93Z"></path><path class="cls-12" d="M406.33,170.56c.02-.77-.14-1.53-.46-2.23-.7-1.33-2.27-1.89-3.66-2.43-2.74-1.07-5.46-2.66-6.85-5.24-1.52-2.82-1.18-6.26-.66-9.44.42-3.54,1.35-6.99,2.75-10.27,1.42-3.3,3.98-5.98,7.2-7.57,3.99-1.77,8.7-1.11,12.71.58,1.53.57,2.93,1.46,4.08,2.62,2.36,2.56,2.56,6.37,2.44,9.84-.31,9.58-2.09,19.06-5.28,28.1-.17.67-.51,1.28-.98,1.78-.51.42-1.13.69-1.78.79-2.21.52-6.29,1.11-8.38-.12-2.25-1.31-1.07-4.05-1.14-6.42Z"></path><path class="cls-10" d="M398.99,133.2c.91,3.84,3.79,6.98,7.08,9.12,1.51.79,2.87,1.82,4.02,3.07,1.78,2.29,1.59,5.5,1.32,8.39.81.37,1.68-.39,2.27-1.07s1.51-1.4,2.29-.96c.3.2.52.48.65.81,1.07,2.6-.01,5.59-2.5,6.9-.46.17-.89.41-1.27.72-.59.82-.59,1.94,0,2.76.52.85,1.3,1.51,1.82,2.36,1.35,2.12,1.18,5.41,3.4,6.49,1.49.56,3.16.14,4.21-1.05,1-1.18,1.74-2.56,2.17-4.05,2.8-7.66,5.47-15.35,8.01-23.08.6-1.46.88-3.04.83-4.61-.2-1.64-1.11-3.12-2.49-4.04-.4-.2-.74-.49-1-.85-.21-.58-.23-1.22-.06-1.82.12-1.87-.58-3.7-1.94-4.99-1.34-1.28-2.93-2.29-4.66-2.96-5.38-2.28-11.23-3.25-17.07-2.82-5.24.39-8.19,6.98-7.08,11.67Z"></path><path class="cls-11" d="M393.76,218.62c1.61,32.01-.58,64.1-6.53,95.6"></path><path class="cls-9" d="M389.02,280.68c.36,2.82.2,5.69-.48,8.45-.69,2.78-2.37,5.21-4.72,6.85-1.39.9-3.34,1.37-4.72.37-.84-.8-1.39-1.87-1.55-3.02-.58-2.25-.84-4.56-.77-6.88.11-1.76.8-6.41,2.93-6.88.57.04,1.13.15,1.68.32.84.11,1.69.18,2.53.27l5.11.53Z"></path><path class="cls-12" d="M353.85,216.08c-4.92-4.35-7.54-10.74-7.08-17.29,1.62-.22,3,1.1,4.04,2.36,1.04,1.26,2.24,2.8,3.27,4.26.15.29.39.51.68.65.39.13.86-.07,1.18.13.19.13.34.31.42.52.58,1.06,1.08,2.17,1.49,3.3"></path></g><g id="brain"><path class="cls-13" d="M272.68,191.03c-1.37,2.67-4.18,4.2-6.85,5.56-25.09,12.85-50.66,24.71-76.71,35.6-13.81,5.78-28.21,11.37-43.18,11.11-3.46-.06-7.2-.57-9.64-3.02-2.22-2.25-2.84-5.65-2.63-8.82.39-5.64,2.97-10.89,7.19-14.65l-.65-1.43c-2.47-5.57-4.53-11.57-3.47-17.53,1.18-6.47,7.46-12.42,13.82-10.8-4.6-4.86-4.39-12.52.47-17.12,3.68-3.49,9.15-4.31,13.69-2.06-1.58-3.88-3.2-7.95-2.87-12.13.41-5.35,8.19-12.44,11.99-16.15,4.93-4.75,11.82-6.87,18.56-5.69.89.17,1.76.41,2.61.72,3.54-4.53,9.95-5.81,15.69-5.28,14.59,1.37,27.52,13.37,29.98,27.82,9.09-1.4,18.32,7.18,17.57,16.36,6.97-.38,13.24,4.2,14.99,10.95.59,2.18.39,4.5-.55,6.55Z"></path><path class="cls-1" d="M239.33,159.16c-1.97-3.11-4.86-5.53-8.26-6.94-2.82-1.07-5.81-1.67-8.83-1.76-2.93-.26-5.88.01-8.71.81-2.85.84-5.26,2.74-6.74,5.31"></path><path class="cls-1" d="M166.21,184.37c.38-2.48,1.4-4.82,2.95-6.8.52-.88,1.17-1.68,1.94-2.36,2.27-1.82,5.54-1.36,8.39-.8-.23-2.22-.17-4.45.18-6.66.37-2.22,1.61-4.2,3.43-5.51,2.6-1.66,5.96-1.18,9.01-.7"></path><path class="cls-1" d="M246.92,187.08c-1.43-2.54-4.99-2.96-7.81-2.18-5.91,1.74-10.11,6.98-10.52,13.14"></path><path class="cls-1" d="M153.47,228.9c-.38-3.82-.26-7.67.35-11.46.13-1.68.77-3.29,1.84-4.59,1.05-.95,2.36-1.57,3.76-1.77,6.62-1.17,13.29,1.82,16.83,7.54-.93-3.99,2.07-8.26,6-9.44,3.93-1.18,8.32.19,11.47,2.82"></path><path class="cls-1" d="M218.38,185.72c1.12.91,1.06,2.62.8,4.05-.91,4.72-3.42,9.63-7.88,11.53-2.21.83-4.59,1.15-6.94.93-4.3-.24-8.9-1.51-11.44-4.98l-4.1,4.01"></path><path class="cls-1" d="M208.04,177.1c-.11-4.6,3.23-8.55,7.78-9.22,1.64-.12,3.29.04,4.87.47,2.44.58,5,1.51,6.38,3.61"></path><path class="cls-13" d="M191.33,128.97l-1.75,2.74c-6.74-1.18-13.64.93-18.56,5.69-3.81,3.71-11.58,10.8-12,16.15-.33,4.18,1.29,8.26,2.87,12.12-5.99-2.98-13.26-.54-16.23,5.45-2.27,4.56-1.44,10.05,2.07,13.74-6.36-1.62-12.66,4.33-13.82,10.8-1.06,5.9,1,11.96,3.47,17.51l-12.56,19.62c-8.63,4.32-19.91,4.99-27.27-1.18-1.6-1.35-2.95-2.97-4-4.78-3.65-6.33-3.07-14.56.57-20.88,3.64-6.31,10.81-11.54,17.7-13.88-4.17-8.04-1.03-17.93,7.01-22.1.56-.29,1.14-.55,1.73-.77-1.37-3.6-2.02-7.43-1.91-11.27.61-6.4,4.11-12.17,9.51-15.66,5.41-3.4,11.82-4.85,18.16-4.11,1.6.46,3.26-.47,3.72-2.07.01-.04.02-.08.03-.13,2.43-4.38,6.24-7.82,10.85-9.78,2.55-.99,5.19-1.74,7.87-2.25,2.38-.64,4.83-.95,7.29-.92,2.45.24,4.84.88,7.08,1.9,2.81,1.17,5.54,2.53,8.17,4.07Z"></path><path class="cls-1" d="M185.02,161.99c-.71-8.49,3.79-16.56,11.39-20.42"></path><path class="cls-1" d="M197.14,183.83c-5.89-.82-11.32,3.29-12.14,9.18-.17,1.23-.13,2.47.13,3.68"></path><path class="cls-1" d="M172.44,200.77c-6.86-2.92-14.83-.95-19.53,4.84"></path><path class="cls-1" d="M127.4,178.95c-1.29-1-2-2.58-1.89-4.21.12-1.61.56-3.19,1.3-4.63.85-1.86,1.83-3.65,2.94-5.37.81-1.4,1.88-2.64,3.15-3.65,2.87-2.05,6.73-1.85,10.24-1.56"></path><path class="cls-1" d="M156.29,143.06c-2.44-.12-4.78.99-6.23,2.95-1.4,1.97-2.22,4.28-2.36,6.69"></path><path class="cls-1" d="M111.35,218.67c-.71.32-1.29-.67-1.4-1.44-1.02-7.58,3.26-14.88,10.37-17.7"></path></g></svg>