<svg width="429" height="702" viewBox="0 0 429 702" fill="none" xmlns="http://www.w3.org/2000/svg">
<path fill-rule="evenodd" clip-rule="evenodd" d="M338.15 1C340.527 1 342.883 1.09222 345.215 1.27337L344.75 7.25535C342.573 7.0862 340.372 7 338.15 7H331.2V1H338.15ZM303.4 1H317.3V7H303.4V1ZM275.6 1H289.5V7H275.6V1ZM247.8 1H261.7V7H247.8V1ZM220 1H233.9V7H220V1ZM359.166 3.46779C363.794 4.57494 368.283 6.03944 372.602 7.83043L370.303 13.3728C366.274 11.702 362.087 10.3359 357.77 9.3031L359.166 3.46779ZM385.182 14.2526C389.21 16.7258 393.027 19.5068 396.602 22.5627L392.703 27.1234C389.365 24.27 385.802 21.6739 382.043 19.3655L385.182 14.2526ZM406.587 32.548C409.643 36.1227 412.424 39.9401 414.897 43.9674L409.784 47.1072C407.476 43.3483 404.88 39.7845 402.027 36.4468L406.587 32.548ZM421.319 56.5483C423.11 60.8672 424.575 65.3559 425.682 69.9834L419.847 71.3795C418.814 67.0628 417.448 62.8757 415.777 58.8466L421.319 56.5483ZM427.877 83.9349C428.058 86.2667 428.15 88.6229 428.15 91C428.15 93.3771 428.058 95.7333 427.877 98.0651L421.895 97.6003C422.064 95.423 422.15 93.2219 422.15 91C422.15 88.7781 422.064 86.577 421.895 84.3997L427.877 83.9349ZM425.682 112.017C424.575 116.644 423.11 121.133 421.319 125.452L415.777 123.153C417.448 119.124 418.814 114.937 419.847 110.62L425.682 112.017ZM414.897 138.033C412.424 142.06 409.643 145.877 406.587 149.452L402.027 145.553C404.88 142.215 407.476 138.652 409.784 134.893L414.897 138.033ZM396.602 159.437C393.027 162.493 389.21 165.274 385.182 167.747L382.043 162.634C385.802 160.326 389.365 157.73 392.703 154.877L396.602 159.437ZM372.602 174.17C368.283 175.961 363.794 177.425 359.166 178.532L357.77 172.697C362.087 171.664 366.274 170.298 370.303 168.627L372.602 174.17ZM345.215 180.727C342.883 180.908 340.527 181 338.15 181H331.2V175H338.15C340.372 175 342.573 174.914 344.75 174.745L345.215 180.727ZM317.3 181H303.4V175H317.3V181ZM289.5 181H275.6V175H289.5V181ZM261.7 181H247.8V175H261.7V181ZM233.9 181H220V175H233.9V181Z" fill="#3B82F6"/>
<path fill-rule="evenodd" clip-rule="evenodd" d="M90 174C87.6229 174 85.2667 174.092 82.9349 174.273L83.3997 180.255C85.577 180.086 87.7781 180 90 180H96.95V174H90ZM124.75 174H110.85V180H124.75V174ZM152.55 174H138.65V180H152.55V174ZM180.35 174H166.45V180H180.35V174ZM208.15 174H194.25V180H208.15V174ZM68.9834 176.468C64.3559 177.575 59.8672 179.039 55.5483 180.83L57.8466 186.373C61.8757 184.702 66.0628 183.336 70.3795 182.303L68.9834 176.468ZM42.9674 187.253C38.9401 189.726 35.1227 192.507 31.548 195.563L35.4468 200.123C38.7845 197.27 42.3483 194.674 46.1072 192.366L42.9674 187.253ZM21.5628 205.548C18.5068 209.123 15.7258 212.94 13.2526 216.967L18.3656 220.107C20.6739 216.348 23.27 212.785 26.1234 209.447L21.5628 205.548ZM6.83043 229.548C5.03944 233.867 3.57494 238.356 2.4678 242.983L8.30311 244.38C9.33589 240.063 10.702 235.876 12.3728 231.847L6.83043 229.548ZM0.273374 256.935C0.0922241 259.267 0 261.623 0 264C0 266.377 0.0922239 268.733 0.273374 271.065L6.25535 270.6C6.0862 268.423 6 266.222 6 264C6 261.778 6.0862 259.577 6.25535 257.4L0.273374 256.935ZM2.46779 285.017C3.57494 289.644 5.03944 294.133 6.83043 298.452L12.3728 296.153C10.702 292.124 9.33589 287.937 8.3031 283.62L2.46779 285.017ZM13.2526 311.033C15.7258 315.06 18.5068 318.877 21.5628 322.452L26.1234 318.553C23.27 315.215 20.6739 311.652 18.3655 307.893L13.2526 311.033ZM31.548 332.437C35.1227 335.493 38.9401 338.274 42.9674 340.747L46.1072 335.634C42.3483 333.326 38.7845 330.73 35.4468 327.877L31.548 332.437ZM55.5483 347.17C59.8672 348.961 64.3559 350.425 68.9834 351.532L70.3795 345.697C66.0628 344.664 61.8757 343.298 57.8466 341.627L55.5483 347.17ZM82.935 353.727C85.2667 353.908 87.6229 354 90 354H96.95V348H90C87.7781 348 85.577 347.914 83.3997 347.745L82.935 353.727ZM110.85 354H124.75V348H110.85V354ZM138.65 354H152.55V348H138.65V354ZM166.45 354H180.35V348H166.45V354ZM194.25 354H208.15V348H194.25V354Z" fill="#3B82F6"/>
<path fill-rule="evenodd" clip-rule="evenodd" d="M338.15 0C340.527 0 342.883 0.0922239 345.215 0.273374L344.75 6.25535C342.573 6.0862 340.372 6 338.15 6H331.2V0H338.15ZM303.4 0H317.3V6H303.4V0ZM275.6 0H289.5V6H275.6V0ZM247.8 0H261.7V6H247.8V0ZM220 0H233.9V6H220V0ZM359.166 2.46779C363.794 3.57494 368.283 5.03944 372.602 6.83043L370.303 12.3728C366.274 10.702 362.087 9.33589 357.77 8.3031L359.166 2.46779ZM385.182 13.2526C389.21 15.7258 393.027 18.5068 396.602 21.5627L392.703 26.1234C389.365 23.27 385.802 20.6739 382.043 18.3655L385.182 13.2526ZM406.587 31.548C409.643 35.1227 412.424 38.9401 414.897 42.9674L409.784 46.1072C407.476 42.3483 404.88 38.7845 402.027 35.4468L406.587 31.548ZM421.319 55.5483C423.11 59.8672 424.575 64.3559 425.682 68.9834L419.847 70.3795C418.814 66.0628 417.448 61.8757 415.777 57.8466L421.319 55.5483ZM427.877 82.9349C428.058 85.2667 428.15 87.6229 428.15 90C428.15 92.3771 428.058 94.7333 427.877 97.0651L421.895 96.6003C422.064 94.423 422.15 92.2219 422.15 90C422.15 87.7781 422.064 85.577 421.895 83.3997L427.877 82.9349ZM425.682 111.017C424.575 115.644 423.11 120.133 421.319 124.452L415.777 122.153C417.448 118.124 418.814 113.937 419.847 109.62L425.682 111.017ZM414.897 137.033C412.424 141.06 409.643 144.877 406.587 148.452L402.027 144.553C404.88 141.215 407.476 137.652 409.784 133.893L414.897 137.033ZM396.602 158.437C393.027 161.493 389.21 164.274 385.182 166.747L382.043 161.634C385.802 159.326 389.365 156.73 392.703 153.877L396.602 158.437ZM372.602 173.17C368.283 174.961 363.794 176.425 359.166 177.532L357.77 171.697C362.087 170.664 366.274 169.298 370.303 167.627L372.602 173.17ZM345.215 179.727C342.883 179.908 340.527 180 338.15 180H331.2V174H338.15C340.372 174 342.573 173.914 344.75 173.745L345.215 179.727ZM317.3 180H303.4V174H317.3V180ZM289.5 180H275.6V174H289.5V180ZM261.7 180H247.8V174H261.7V180ZM233.9 180H220V174H233.9V180Z" fill="#3B82F6"/>
<path fill-rule="evenodd" clip-rule="evenodd" d="M338.15 348C340.527 348 342.883 348.092 345.215 348.273L344.75 354.255C342.573 354.086 340.372 354 338.15 354H331.2V348H338.15ZM303.4 348H317.3V354H303.4V348ZM275.6 348H289.5V354H275.6V348ZM247.8 348H261.7V354H247.8V348ZM220 348H233.9V354H220V348ZM359.166 350.468C363.794 351.575 368.283 353.039 372.602 354.83L370.303 360.373C366.274 358.702 362.087 357.336 357.77 356.303L359.166 350.468ZM385.182 361.253C389.21 363.726 393.027 366.507 396.602 369.563L392.703 374.123C389.365 371.27 385.802 368.674 382.043 366.366L385.182 361.253ZM406.587 379.548C409.643 383.123 412.424 386.94 414.897 390.967L409.784 394.107C407.476 390.348 404.88 386.785 402.027 383.447L406.587 379.548ZM421.319 403.548C423.11 407.867 424.575 412.356 425.682 416.983L419.847 418.38C418.814 414.063 417.448 409.876 415.777 405.847L421.319 403.548ZM427.877 430.935C428.058 433.267 428.15 435.623 428.15 438C428.15 440.377 428.058 442.733 427.877 445.065L421.895 444.6C422.064 442.423 422.15 440.222 422.15 438C422.15 435.778 422.064 433.577 421.895 431.4L427.877 430.935ZM425.682 459.017C424.575 463.644 423.11 468.133 421.319 472.452L415.777 470.153C417.448 466.124 418.814 461.937 419.847 457.62L425.682 459.017ZM414.897 485.033C412.424 489.06 409.643 492.877 406.587 496.452L402.027 492.553C404.88 489.215 407.476 485.652 409.784 481.893L414.897 485.033ZM396.602 506.437C393.027 509.493 389.21 512.274 385.182 514.747L382.043 509.634C385.802 507.326 389.365 504.73 392.703 501.877L396.602 506.437ZM372.602 521.17C368.283 522.961 363.794 524.425 359.166 525.532L357.77 519.697C362.087 518.664 366.274 517.298 370.303 515.627L372.602 521.17ZM345.215 527.727C342.883 527.908 340.527 528 338.15 528H331.2V522H338.15C340.372 522 342.573 521.914 344.75 521.745L345.215 527.727ZM317.3 528H303.4V522H317.3V528ZM289.5 528H275.6V522H289.5V528ZM261.7 528H247.8V522H261.7V528ZM233.9 528H220V522H233.9V528Z" fill="#3B82F6"/>
<path fill-rule="evenodd" clip-rule="evenodd" d="M90 522C87.6229 522 85.2667 522.092 82.9349 522.273L83.3997 528.255C85.577 528.086 87.7781 528 90 528H96.95V522H90ZM124.75 522H110.85V528H124.75V522ZM152.55 522H138.65V528H152.55V522ZM180.35 522H166.45V528H180.35V522ZM208.15 522H194.25V528H208.15V522ZM68.9834 524.468C64.3559 525.575 59.8672 527.039 55.5483 528.83L57.8466 534.373C61.8757 532.702 66.0628 531.336 70.3795 530.303L68.9834 524.468ZM42.9674 535.253C38.9401 537.726 35.1227 540.507 31.548 543.563L35.4468 548.123C38.7845 545.27 42.3483 542.674 46.1072 540.366L42.9674 535.253ZM21.5628 553.548C18.5068 557.123 15.7258 560.94 13.2526 564.967L18.3656 568.107C20.6739 564.348 23.27 560.785 26.1234 557.447L21.5628 553.548ZM6.83043 577.548C5.03944 581.867 3.57494 586.356 2.4678 590.983L8.30311 592.38C9.33589 588.063 10.702 583.876 12.3728 579.847L6.83043 577.548ZM0.273374 604.935C0.0922241 607.267 0 609.623 0 612C0 614.377 0.0922239 616.733 0.273374 619.065L6.25535 618.6C6.0862 616.423 6 614.222 6 612C6 609.778 6.0862 607.577 6.25535 605.4L0.273374 604.935ZM2.46779 633.017C3.57494 637.644 5.03944 642.133 6.83043 646.452L12.3728 644.153C10.702 640.124 9.33589 635.937 8.3031 631.62L2.46779 633.017ZM13.2526 659.033C15.7258 663.06 18.5068 666.877 21.5628 670.452L26.1234 666.553C23.27 663.215 20.6739 659.652 18.3655 655.893L13.2526 659.033ZM31.548 680.437C35.1227 683.493 38.9401 686.274 42.9674 688.747L46.1072 683.634C42.3483 681.326 38.7845 678.73 35.4468 675.877L31.548 680.437ZM55.5483 695.17C59.8672 696.961 64.3559 698.425 68.9834 699.532L70.3795 693.697C66.0628 692.664 61.8757 691.298 57.8466 689.627L55.5483 695.17ZM82.935 701.727C85.2667 701.908 87.6229 702 90 702H96.95V696H90C87.7781 696 85.577 695.914 83.3997 695.745L82.935 701.727ZM110.85 702H124.75V696H110.85V702ZM138.65 702H152.55V696H138.65V702ZM166.45 702H180.35V696H166.45V702ZM194.25 702H208.15V696H194.25V702Z" fill="#3B82F6"/>
<path fill-rule="evenodd" clip-rule="evenodd" d="M414.317 702H428.15V696H414.317V702ZM386.65 702H400.483V696H386.65V702ZM358.983 702H372.817V696H358.983V702ZM331.317 702H345.15V696H331.317V702ZM303.65 702H317.483V696H303.65V702ZM275.983 702H289.817V696H275.983V702ZM248.317 702H262.15V696H248.317V702ZM220.65 702H234.483V696H220.65V702Z" fill="#3B82F6"/>
<path fill-rule="evenodd" clip-rule="evenodd" d="M194.317 7H208.15V1H194.317V7ZM166.65 7H180.483V1H166.65V7ZM138.983 7H152.817V1H138.983V7ZM111.317 7H125.15V1H111.317V7ZM83.6499 7H97.4832V1H83.6499V7ZM55.9832 7H69.8166V1H55.9832V7ZM28.3166 7H42.1499V1H28.3166V7ZM0.649933 7H14.4833V1H0.649933V7Z" fill="#3B82F6"/>
</svg>
