<?xml version="1.0" encoding="utf-8"?>
<svg version="1.1" id="Слой_1" xmlns="http://www.w3.org/2000/svg" xmlns:xlink="http://www.w3.org/1999/xlink" x="0px" y="0px"
	 viewBox="0 0 100 100" style="enable-background:new 0 0 100 100;" xml:space="preserve">
<style type="text/css">
	.st0{fill:#3B82F6;}
	.st1{fill:#CBBBA0;}
	.st2{clip-path:url(#SVGID_00000006698858074639639870000001771362831058815108_);}
	.st3{fill:#3C3C3B;}
	.st4{fill:#1D1D1B;}
	.st5{fill:#F6F6F6;}
	.st6{clip-path:url(#XMLID_00000114790781397890846320000011378271190244135344_);}
	.st7{clip-path:url(#XMLID_00000055674088137711886440000017149373661093437072_);fill:#1D1D1B;}
</style>
<path id="XMLID_00000003804083612457606690000006455730042634343354_" class="st0" d="M87.15,10.26c-0.73-3.51-2.91-5.78-3.35-6.22
	c-0.83-0.84-2.87-2.84-6.22-3.41c-3.5-0.59-6.19,0.75-6.94,1.14c-3.01,1.56-4.43,4.05-5.56,6.04c-1.46,2.56-2.07,4.91-2.69,7.3
	c-0.57,2.2-1.06,4.82-2.51,7.96c-0.28,0.6-0.57,1.16-1.02,1.79c-1.57,2.22-3.62,3.2-4.13,3.47c-2.54,1.33-5.33,4.84-10.23,11.01
	c-8.23,10.37-15.3,24.79-16.27,26.8c-2.6,3.26-6.41,5.85-7.95,9.72c0.26-0.65,2.96-2.15,5.35-3.23c0.64-0.29,1.42-0.47,1.97-0.39
	C19.38,78.4,11.15,84.56,2.93,90.72c3.14-0.75,6.28-1.5,9.42-2.24c6.91-3.68,13.82-7.36,20.73-11.04c4.4-1.17,8.79-2.33,13.19-3.5
	c1.23,0.54,2.45,1.08,3.68,1.62c0.18,0.83,0.57,2.12,1.53,3.41c0.48,0.66,0.99,1.15,1.44,1.53c1.82,3.62,3.65,7.24,5.47,10.86
	c0.14,0.5,0.25,1.2-0.09,1.79c-0.12,0.21-0.51,0.8-3.05,1.35c-1.99,0.43-2.67,0.27-3.41,0.9c-0.62,0.52-0.87,1.25-0.99,1.79
	c0.4-0.38,1.06-0.91,1.97-1.17c1.38-0.39,2.19,0.13,3.68-0.09c0.66-0.1,1.6-0.37,2.69-1.17c0.03,1.59,0.06,3.17,0.09,4.76
	c0.45-0.96,0.9-1.91,1.35-2.87c0.26-0.29,0.54-0.49,0.81-0.63c1.87-0.94,4.87,0.49,7.63,3.32c-0.34-0.82-0.68-1.64-1.02-2.45
	c0.45-0.19,1.35-0.51,2.48-0.39c1.8,0.19,2.91,1.32,3.2,1.65c-0.14-0.6-0.44-1.47-1.2-2.09c-0.79-0.65-1.63-0.67-3.17-0.81
	c-2.64-0.24-3.96-0.36-4.88-0.69c-1.5-0.54-2.46-1.61-3.74-3.41c-2.77-3.91-4.82-8.14-6.13-11.22c0.8-1.63,1.11-3.23,0.93-4.82
	c0.68-0.12,1.36-0.24,2.03-0.36c0.15,0.58,0.56,1.83,1.73,2.78c0.37,0.3,0.75,0.51,1.08,0.66c2.55,3.68,5.1,7.36,7.66,11.04
	c0.04,0.26,0.05,0.64-0.15,0.99c-0.47,0.8-1.77,0.84-2.45,0.87c-1.31,0.05-1.76-0.33-2.63,0c-0.46,0.17-0.78,0.45-0.99,0.66
	c0.76,0.3,2.05,0.7,3.68,0.69c1.51-0.01,2.7-0.37,3.44-0.66c0.35,0.4,0.71,0.83,1.08,1.32c0.42,0.56,0.79,1.1,1.11,1.62
	c0.1-0.27,0.24-0.82,0.12-1.5c-0.07-0.39-0.21-0.69-0.33-0.9c2.04,0.73,4.09,1.46,6.13,2.18c0.3,0.28,0.6,0.56,0.9,0.84
	c0.07-0.22,0.25-0.92-0.09-1.62c-0.11-0.22-0.24-0.38-0.36-0.51c0.53-0.22,1.63-0.59,2.99-0.39c0.68,0.1,1.22,0.31,1.62,0.51
	c-0.11-0.32-0.34-0.83-0.84-1.2c-0.5-0.37-1.05-0.43-1.79-0.45c-1.53-0.03-2.21,0.17-3.02,0.21c-1.58,0.07-2.8-0.54-3.8-1.05
	c-1.82-0.92-2.89-2.19-3.56-2.99c-3.41-4.12-6.72-8.86-7.66-10.2c0.23-0.3,0.5-0.71,0.72-1.23c0.4-0.97,0.42-1.85,0.39-2.36
	c1.27-0.54,3.04-1.39,5.02-2.63c4.83-3.03,7.7-6.42,10.98-10.35c3.36-4.04,5.05-6.06,6.55-9.48c0.39-0.88,1.92-4.49,2.42-9.51
	c0.21-2.14,0.59-6.33-0.9-11.4c-0.66-2.25-1.5-4.03-2.15-5.23c-0.15-0.45-0.32-1.08-0.42-1.85c-0.07-0.57-0.24-2.05,0.27-3.71
	c0.7-2.29,2.3-3.64,2.99-4.16c0.93,0.04,2.07,0,3.35-0.24c0.73-0.14,1.39-0.32,1.97-0.51c0.28,0.04,0.56,0.08,0.84,0.12
	c-0.03-0.26-0.1-0.64-0.27-1.05c-0.57-1.35-1.81-1.96-2.72-2.42c-0.66-0.33-1.76-0.77-3.23-0.9C87.22,10.63,87.2,10.46,87.15,10.26z
	"/>
<path class="st1" d="M87.51,42.09c0.18-1.76,0.46-4.92-0.27-8.8c-3.06,1.23-8.73,2.83-14.83,0.75c-2.21-0.75-3.98-1.82-5.34-2.85
	c-2.17,13.1-7.21,20.79-11.38,25.38c-5.48,6.03-10.63,8.01-24.07,16.36c-9.15,5.68-16.32,10.7-20.87,13.99
	c-0.96,1-1.59,1.79-1.99,2.41c1.2-0.28,2.39-0.57,3.59-0.85c6.91-3.68,13.82-7.36,20.73-11.04c4.4-1.17,8.79-2.33,13.19-3.5
	c1.23,0.54,2.45,1.08,3.68,1.62c0.18,0.83,0.57,2.12,1.53,3.41c0.48,0.66,0.99,1.15,1.44,1.53c0.01,0.03,0.03,0.06,0.04,0.08
	c0.57-0.18,1.14-0.36,1.71-0.54c-0.02-0.04-0.03-0.08-0.05-0.11c0.8-1.63,1.11-3.23,0.93-4.82c0.68-0.12,1.36-0.24,2.03-0.36
	c0.15,0.58,0.56,1.83,1.73,2.78c0.37,0.3,0.75,0.51,1.08,0.66c0.01,0.01,0.01,0.02,0.02,0.03c0.39-0.12,0.78-0.25,1.17-0.37
	c-0.05-0.07-0.1-0.14-0.14-0.2c0.23-0.3,0.5-0.71,0.72-1.23c0.4-0.97,0.42-1.85,0.39-2.36c1.27-0.54,3.04-1.39,5.02-2.63
	c4.83-3.03,7.7-6.42,10.98-10.35c3.36-4.04,5.05-6.06,6.55-9.48C85.48,50.72,87.01,47.11,87.51,42.09z"/>
<g>
	<defs>
		<path id="SVGID_1_" d="M92.63,14.99c0.28,0.04,0.56,0.08,0.84,0.12c-0.03-0.26-0.1-0.64-0.27-1.05c-0.57-1.35-1.81-1.96-2.72-2.42
			c-0.66-0.33-1.76-0.77-3.23-0.9c-0.02-0.11-0.05-0.28-0.09-0.48c-0.2-0.97-0.52-1.85-0.88-2.62c-0.55,0.12-1.36,0.37-2.17,0.98
			c-1.45,1.09-1.91,2.58-2.04,3.07c-1.32-0.62-2.44-1.14-3.3-1.54c-2.79-1.29-3.47-1.58-4.33-1.88c-1.39-0.49-2.55-0.76-3.3-0.92
			c-0.14-0.01-0.98-0.04-1.6,0.6c-0.57,0.59-0.72,1.52-0.36,2.34c-0.19-0.07-1.92-0.7-3.38,0.29c-0.98,0.67-1.27,1.68-1.38,2.09
			c-0.47,1.63,0.19,3.03,0.48,3.63c0.26,0.56,0.97,2.06,2.65,2.84c2.25,1.03,4.46-0.05,5.06-0.34c1.06-0.52,1.77-1.21,2.18-1.68
			c0.5-0.34,1.21-0.76,2.11-1.13c1.79-0.74,3.31-0.86,3.81-0.88c1.24-0.06,2,0.12,3.13,0.29c0.89,0.14,2.05,0.28,3.46,0.35
			c0,0,0.01-0.01,0.01-0.01c0.93,0.04,2.07,0,3.35-0.24C91.39,15.36,92.05,15.18,92.63,14.99z"/>
	</defs>
	<use xlink:href="#SVGID_1_"  style="overflow:visible;fill:#3C3C3B;"/>
	<clipPath id="SVGID_00000000900990759890220410000002901679099125236896_">
		<use xlink:href="#SVGID_1_"  style="overflow:visible;"/>
	</clipPath>
	<g style="clip-path:url(#SVGID_00000000900990759890220410000002901679099125236896_);">
		<g>
			<path class="st3" d="M90.04,10.82c0.19,0.31,0.34,0.65,0.5,0.97c0.08,0.16,0.16,0.32,0.26,0.47c0.05,0.08,0.1,0.15,0.15,0.22
				c0.18,0.24,0.35,0.48,0.55,0.7c0.23,0.24,0.49,0.42,0.8,0.52c0.3,0.16,0.62,0.23,0.96,0.22c0.34,0.01,0.67-0.06,0.96-0.22
				c0.31-0.1,0.58-0.27,0.8-0.52c0.13-0.17,0.26-0.34,0.39-0.51c0.23-0.39,0.34-0.81,0.34-1.26c-0.03-0.22-0.06-0.44-0.09-0.66
				c-0.12-0.42-0.33-0.79-0.64-1.1c-0.05-0.06-0.11-0.12-0.15-0.18c0.13,0.17,0.26,0.34,0.39,0.51c-0.39-0.51-0.58-1.13-0.91-1.67
				c-0.16-0.29-0.37-0.53-0.64-0.7c-0.24-0.22-0.52-0.37-0.85-0.45c-0.33-0.1-0.66-0.12-1-0.04c-0.33,0.02-0.64,0.11-0.93,0.3
				c-0.17,0.13-0.34,0.26-0.51,0.39c-0.31,0.31-0.52,0.68-0.64,1.1c-0.03,0.22-0.06,0.44-0.09,0.66
				C89.7,10.01,89.81,10.43,90.04,10.82L90.04,10.82z"/>
		</g>
	</g>
	<g style="clip-path:url(#SVGID_00000000900990759890220410000002901679099125236896_);">
		<g>
			<path class="st4" d="M93.53,15.17c-0.47-0.75-1.01-1.53-1.93-1.69c-1.11-0.19-2.25-0.25-3.37-0.29
				c-2.26-0.08-4.52,0.01-6.78-0.12c-0.8-0.04-0.8,1.21,0,1.25c1.96,0.11,3.93,0.06,5.89,0.09c0.96,0.02,1.92,0.06,2.88,0.15
				c0.4,0.04,0.96,0.01,1.34,0.18c0.39,0.17,0.68,0.72,0.89,1.06C92.87,16.48,93.96,15.86,93.53,15.17L93.53,15.17z"/>
		</g>
	</g>
</g>
<path class="st5" d="M87.51,42.09c0.18-1.76,0.46-4.92-0.27-8.8c-3.06,1.23-8.73,2.83-14.83,0.75c-2.21-0.75-3.98-1.82-5.34-2.85
	c-2.17,13.1-7.21,20.79-11.38,25.38c-5.48,6.03-10.63,8.01-24.07,16.36c-9.15,5.68-16.32,10.7-20.87,13.99
	c-0.96,1-1.59,1.79-1.99,2.41c1.2-0.28,2.39-0.57,3.59-0.85c6.91-3.68,13.82-7.36,20.73-11.04c4.4-1.17,8.79-2.33,13.19-3.5
	c1.23,0.54,2.45,1.08,3.68,1.62c0.18,0.83,0.57,2.12,1.53,3.41c0.48,0.66,0.99,1.15,1.44,1.53c0.01,0.03,0.03,0.06,0.04,0.08
	c0.57-0.18,1.14-0.36,1.71-0.54c-0.02-0.04-0.03-0.08-0.05-0.11c0.8-1.63,1.11-3.23,0.93-4.82c0.68-0.12,1.36-0.24,2.03-0.36
	c0.15,0.58,0.56,1.83,1.73,2.78c0.37,0.3,0.75,0.51,1.08,0.66c0.01,0.01,0.01,0.02,0.02,0.03c0.39-0.12,0.78-0.25,1.17-0.37
	c-0.05-0.07-0.1-0.14-0.14-0.2c0.23-0.3,0.5-0.71,0.72-1.23c0.4-0.97,0.42-1.85,0.39-2.36c1.27-0.54,3.04-1.39,5.02-2.63
	c4.83-3.03,7.7-6.42,10.98-10.35c3.36-4.04,5.05-6.06,6.55-9.48C85.48,50.72,87.01,47.11,87.51,42.09z"/>
<g>
	<path class="st3" d="M60.38,78.19c2.55,3.68,5.1,7.36,7.66,11.04c0.04,0.26,0.05,0.64-0.15,0.99c-0.47,0.8-1.77,0.84-2.45,0.87
		c-1.31,0.05-1.76-0.33-2.63,0c-0.46,0.17-0.78,0.45-0.99,0.66c0.76,0.3,2.05,0.7,3.68,0.69c1.51-0.01,2.7-0.37,3.44-0.66
		c0.35,0.4,0.71,0.83,1.08,1.32c0.42,0.56,0.79,1.1,1.11,1.62c0.1-0.27,0.24-0.82,0.12-1.5c-0.07-0.39-0.21-0.69-0.33-0.9
		c2.04,0.73,4.09,1.46,6.13,2.18c0.3,0.28,0.6,0.56,0.9,0.84c0.07-0.22,0.25-0.92-0.09-1.62c-0.11-0.22-0.24-0.38-0.36-0.51
		c0.53-0.22,1.63-0.59,2.99-0.39c0.68,0.1,1.22,0.31,1.62,0.51c-0.11-0.32-0.34-0.83-0.84-1.2c-0.5-0.37-1.05-0.43-1.79-0.45
		c-1.53-0.03-2.21,0.17-3.02,0.21c-1.58,0.07-2.8-0.54-3.8-1.05c-1.82-0.92-2.89-2.19-3.56-2.99c-3.33-4.02-6.57-8.63-7.59-10.1
		l-1.21,0.39C60.32,78.16,60.35,78.18,60.38,78.19z"/>
	<path class="st3" d="M56.5,95.93c0.66-0.1,1.6-0.37,2.69-1.17c0.03,1.59,0.06,3.17,0.09,4.76c0.45-0.96,0.9-1.91,1.35-2.87
		c0.26-0.29,0.54-0.49,0.81-0.63c1.87-0.94,4.87,0.49,7.63,3.32c-0.34-0.82-0.68-1.64-1.02-2.45c0.45-0.19,1.35-0.51,2.48-0.39
		c1.8,0.19,2.91,1.32,3.2,1.65c-0.14-0.6-0.44-1.47-1.2-2.09c-0.79-0.65-1.63-0.67-3.17-0.81c-2.64-0.24-3.96-0.36-4.88-0.69
		c-1.5-0.54-2.46-1.61-3.74-3.41c-2.76-3.89-4.8-8.11-6.12-11.18l-1.71,0.55c1.82,3.61,3.64,7.23,5.46,10.84
		c0.14,0.5,0.25,1.2-0.09,1.79c-0.12,0.21-0.51,0.8-3.05,1.35c-1.99,0.43-2.67,0.27-3.41,0.9c-0.62,0.52-0.87,1.25-0.99,1.79
		c0.4-0.38,1.06-0.91,1.97-1.17C54.19,95.62,55.01,96.15,56.5,95.93z"/>
</g>
<g>
	<defs>
		<path id="XMLID_00000059273954974687529900000016628264358425821075_" d="M76.91,11.93c0,1.2-1.22,1.77-2.69,1.54
			c-1.6-0.25-2.48-1-2.69-2.18c-0.2-1.19,1.1-1.7,2.59-1.7C75.6,9.59,76.91,10.73,76.91,11.93z"/>
	</defs>
	<use xlink:href="#XMLID_00000059273954974687529900000016628264358425821075_"  style="overflow:visible;fill:#F6F6F6;"/>
	<clipPath id="XMLID_00000068664670187674717840000000620059986046022565_">
		<use xlink:href="#XMLID_00000059273954974687529900000016628264358425821075_"  style="overflow:visible;"/>
	</clipPath>
	<g style="clip-path:url(#XMLID_00000068664670187674717840000000620059986046022565_);">
		<defs>
			<circle id="XMLID_00000023987142621254914500000013996994905120420240_" cx="74.74" cy="11.08" r="2.28"/>
		</defs>
		<use xlink:href="#XMLID_00000023987142621254914500000013996994905120420240_"  style="overflow:visible;fill:#634E42;"/>
		<clipPath id="XMLID_00000160155276098495165800000002005275171527082166_">
			<use xlink:href="#XMLID_00000023987142621254914500000013996994905120420240_"  style="overflow:visible;"/>
		</clipPath>
		
			<circle style="clip-path:url(#XMLID_00000160155276098495165800000002005275171527082166_);fill:#1D1D1B;" cx="74.62" cy="11.18" r="1.72"/>
	</g>
</g>
<g>
	<path class="st3" d="M87.23,33.25c2.75,14.32-3.96,24.54-13.8,34.1c-3.06,3.04-6.75,5.45-10.71,7.15l0.29-0.46
		c0.01,1.59-0.34,4.31-2.35,4.43c-1.88-0.13-3.17-1.89-3.57-3.6c0,0,0.57,0.38,0.57,0.38l-2.03,0.35l0.4-0.54
		c0.12,1.08,0.02,2.18-0.27,3.22c-0.41,2.11-2.17,3.3-4,1.7c-1.18-1.12-1.89-2.73-2.25-4.3c0,0,0.17,0.27,0.17,0.27l-0.08-0.06
		c0,0,0.09,0.05,0.09,0.05l-3.6-1.59l0.29,0.02c0.13-0.03-13.67,3.62-13.24,3.48c0,0-10.48,5.26-10.48,5.26
		c0,0-10.39,5.48-10.4,5.48c0,0-4.54,0.99-4.54,0.99s4.49-1.16,4.49-1.16c-0.11,0.05,10.22-5.77,10.19-5.76
		c0.04-0.02,10.36-5.51,10.39-5.53c0-0.01,13.32-3.61,13.33-3.62c0,0,0.15-0.04,0.15-0.04s0.14,0.06,0.14,0.06l3.61,1.57
		c0.09,0.04,0.22,0.15,0.3,0.21c0,0,0.04,0.17,0.04,0.17c0.28,1.3,0.89,2.53,1.73,3.56c0.35,0.33,0.8,0.71,1.29,0.72
		c0.94-0.01,1.17-0.94,1.41-1.75c0.31-1.08,0.34-2.21,0.17-3.31c0.63-0.11,2.33-0.42,2.95-0.53c0.26,1.33,0.94,2.77,2.31,3.22
		c0.38,0.18,0.79,0.08,1.04-0.22c0.6-0.96,0.86-2.28,0.75-3.42c0,0,0.31-0.13,0.31-0.13c7.86-3.23,13.88-9.75,18.92-16.38
		C86.49,50.5,88.58,41.65,87.23,33.25L87.23,33.25z"/>
</g>
</svg>
